# xmcd CD database file
#
# Track frame offsets:
#	150
#	18629
#	43108
#	73664
#	94027
#	124277
#	168116
#	194872
#	259722
#	287112
#
# Disc length: 3950 seconds
#
# Revision: 0
# Processed by: cddbd v1.5.2PL0 Copyright (c) Steve Scherf et al.
# Submitted via: CDex 1.70beta2
#
DISCID=960f6c0a
DTITLE=Michael Bellar - The As-Is Ensemble - Like It Is
DYEAR=2005
DGENRE=Jazz
TTITLE0=Big Ole Yummy
TTITLE1=Gringo Shake
TTITLE2=Crazy
TTITLE3=Esmerelda
TTITLE4=Lucy in the Sky with Diamonds
TTITLE5=Tango Esperanza
TTITLE6=Sweatin' Rosie
TTITLE7=The Bobo Suite
TTITLE8=Beautiful Day
TTITLE9=All the Little Things
EXTD=YEAR: 2005
EXTT0=
EXTT1=
EXTT2=
EXTT3=
EXTT4=
EXTT5=
EXTT6=
EXTT7=
EXTT8=
EXTT9=
PLAYORDER=
